<svg width="17" height="17" viewBox="0 0 17 17" fill="none" xmlns="http://www.w3.org/2000/svg">
<path d="M15.4062 2.67285H11.6078C10.7927 2.67285 9.9958 2.90693 9.31016 3.34854L8.5 3.86816L7.68984 3.34854C7.00488 2.90702 6.20712 2.67242 5.39219 2.67285H1.59375C1.2999 2.67285 1.0625 2.91025 1.0625 3.2041V12.6338C1.0625 12.9276 1.2999 13.165 1.59375 13.165H5.39219C6.20732 13.165 7.0042 13.3991 7.68984 13.8407L8.42695 14.3155C8.44854 14.3288 8.47344 14.3371 8.49834 14.3371C8.52324 14.3371 8.54814 14.3305 8.56973 14.3155L9.30684 13.8407C9.99414 13.3991 10.7927 13.165 11.6078 13.165H15.4062C15.7001 13.165 15.9375 12.9276 15.9375 12.6338V3.2041C15.9375 2.91025 15.7001 2.67285 15.4062 2.67285ZM5.39219 11.9697H2.25781V3.86816H5.39219C5.97988 3.86816 6.55098 4.03584 7.04404 4.35293L7.8542 4.87256L7.96875 4.94727V12.6172C7.17852 12.1922 6.29531 11.9697 5.39219 11.9697ZM14.7422 11.9697H11.6078C10.7047 11.9697 9.82148 12.1922 9.03125 12.6172V4.94727L9.1458 4.87256L9.95596 4.35293C10.449 4.03584 11.0201 3.86816 11.6078 3.86816H14.7422V11.9697ZM6.58916 5.99316H3.50459C3.43984 5.99316 3.38672 6.04961 3.38672 6.11768V6.86475C3.38672 6.93281 3.43984 6.98926 3.50459 6.98926H6.5875C6.65225 6.98926 6.70537 6.93281 6.70537 6.86475V6.11768C6.70703 6.04961 6.65391 5.99316 6.58916 5.99316ZM10.293 6.11768V6.86475C10.293 6.93281 10.3461 6.98926 10.4108 6.98926H13.4937C13.5585 6.98926 13.6116 6.93281 13.6116 6.86475V6.11768C13.6116 6.04961 13.5585 5.99316 13.4937 5.99316H10.4108C10.3461 5.99316 10.293 6.04961 10.293 6.11768ZM6.58916 8.31738H3.50459C3.43984 8.31738 3.38672 8.37383 3.38672 8.4419V9.18897C3.38672 9.25703 3.43984 9.31348 3.50459 9.31348H6.5875C6.65225 9.31348 6.70537 9.25703 6.70537 9.18897V8.4419C6.70703 8.37383 6.65391 8.31738 6.58916 8.31738ZM13.4954 8.31738H10.4108C10.3461 8.31738 10.293 8.37383 10.293 8.4419V9.18897C10.293 9.25703 10.3461 9.31348 10.4108 9.31348H13.4937C13.5585 9.31348 13.6116 9.25703 13.6116 9.18897V8.4419C13.6133 8.37383 13.5602 8.31738 13.4954 8.31738Z" fill="#45443F"/>
</svg>
