<svg width="13" height="13" viewBox="0 0 13 13" fill="none" xmlns="http://www.w3.org/2000/svg">
<path d="M5.48436 1.62501H7.51561C7.54237 1.62471 7.56892 1.62975 7.59371 1.63985C7.61849 1.64995 7.641 1.6649 7.65993 1.68382C7.67885 1.70275 7.6938 1.72526 7.7039 1.75004C7.714 1.77483 7.71904 1.80138 7.71874 1.82814V2.43751H5.28124V1.82814C5.28093 1.80138 5.28598 1.77483 5.29607 1.75004C5.30617 1.72526 5.32113 1.70275 5.34005 1.68382C5.35897 1.6649 5.38149 1.64995 5.40627 1.63985C5.43105 1.62975 5.4576 1.62471 5.48436 1.62501Z" fill="white"/>
<path d="M5.58594 1.625H7.41406C7.441 1.625 7.46683 1.6357 7.48588 1.65475C7.50492 1.67379 7.51562 1.69963 7.51562 1.72656V2.4375H5.48438V1.72656C5.48438 1.69963 5.49508 1.67379 5.51412 1.65475C5.53317 1.6357 5.559 1.625 5.58594 1.625Z" fill="white"/>
<path d="M1.63643 2.4375H4.46875V1.21875C4.46875 1.11101 4.51155 1.00767 4.58774 0.931488C4.66392 0.855301 4.76726 0.8125 4.875 0.8125H8.125C8.23274 0.8125 8.33608 0.855301 8.41226 0.931488C8.48845 1.00767 8.53125 1.11101 8.53125 1.21875V2.4375H11.3636L11.375 3.45312H10.5371L10.027 11.4258C10.0141 11.632 9.92314 11.8255 9.77263 11.967C9.62213 12.1085 9.42337 12.1873 9.2168 12.1875H3.7832C3.57674 12.1875 3.37804 12.1088 3.22746 11.9676C3.07687 11.8264 2.98571 11.6331 2.97248 11.4271L2.46289 3.45312H1.625L1.63643 2.4375ZM8.53125 10.5625L8.75977 4.0625H7.92188L7.69336 10.5625H8.53125ZM6.09375 10.5625H6.90625V4.0625H6.09375V10.5625ZM5.48438 2.4375H7.51562V1.72656C7.51562 1.69963 7.50492 1.67379 7.48588 1.65475C7.46683 1.6357 7.441 1.625 7.41406 1.625H5.58594C5.559 1.625 5.53317 1.6357 5.51412 1.65475C5.49508 1.67379 5.48438 1.69963 5.48438 1.72656V2.4375ZM4.46875 10.5625H5.30664L5.07812 4.0625H4.24023L4.46875 10.5625Z" fill="white"/>
</svg>
